<svg id="Capa_1" enable-background="new 0 0 512 512" height="512" viewBox="0 0 512 512" width="512" xmlns="http://www.w3.org/2000/svg"><g><g><g clip-rule="evenodd" fill-rule="evenodd"><path d="m38.312 7.5h45v497h-45z" fill="#e4e8ed"/><path d="m187 325v-98.999c-19.883 0-36-16.118-36-36 0-28.078 30.602-44.948 54.228-31.048 2.012-17.976 17.259-31.952 35.772-31.952s33.76 13.976 35.772 31.952c23.625-13.9 54.228 2.971 54.228 31.048 0 19.882-16.118 36-36 36v98.999zm241.688-210.5v-62c0-24.75-20.25-45-45-45h-300.376v497h300.377c24.75 0 45-20.25 45-45v-105-105-30-105z" fill="#ff95bd"/><path d="m83.312 7.5h15v497h-15z" fill="#ff7bac"/><path d="m187 325v-98.999c-19.883 0-36-16.118-36-36 0-28.078 30.602-44.948 54.228-31.048 2.012-17.976 17.259-31.952 35.772-31.952s33.76 13.976 35.772 31.952c23.625-13.9 54.228 2.971 54.228 31.048 0 19.882-16.118 36-36 36v98.999zm123-86.242c20.843-6.407 36-25.816 36-48.757 0-18.806-10.034-35.678-26.524-44.685-10.31-5.632-21.935-7.512-33.091-5.605-8.513-16.564-25.781-27.71-45.385-27.71s-36.872 11.146-45.385 27.71c-11.158-1.907-22.785-.026-33.096 5.607-16.487 9.009-26.519 25.879-26.519 44.683 0 22.941 15.157 42.35 36 48.757v101.242h138z" fill="#ff7bac"/><path d="m331 190.001c0-28.077-30.603-44.948-54.228-31.048-2.012-17.976-17.259-31.952-35.772-31.952s-33.76 13.976-35.772 31.952c-23.626-13.9-54.228 2.97-54.228 31.048 0 19.882 16.118 36 36 36v98.999h108v-98.999c19.882 0 36-16.118 36-36z" fill="#e4e8ed"/><path d="m428.688 114.5h45v105h-45z" fill="#ff4a51"/><path d="m428.688 249.5h45v105h-45z" fill="#ffe477"/><path d="m428.688 354.5h45v105h-45z" fill="#e4e8ed"/><path d="m38.312 7.5h22.5v497h-22.5z" fill="#c8d1da"/><path d="m428.688 114.5h22.5v105h-22.5z" fill="#ff1d25"/><path d="m428.688 249.5h22.5v105h-22.5z" fill="#ffd442"/><path d="m428.688 354.5h22.5v105h-22.5z" fill="#c8d1da"/></g><g><path d="m406.188 127.5h-15v-15h15zm0-30h-15v-45c0-4.065-3.435-7.5-7.5-7.5h-15v-15h15c12.406 0 22.5 10.094 22.5 22.5z" fill="#fff"/></g><g><path d="m263.5 283.001h-15v-15h15zm-30 0h-15v-15h15z" fill="#fff"/></g><g><path d="m150.812 482h-15v-15h15zm-30.001 0h-15v-15h15z" fill="#fff"/></g><path clip-rule="evenodd" d="m202 310.001v-84h7.5v-13.732h-19.535c-13.918-.398-23.965-7.399-23.965-22.268 0-24.753 34.57-29.698 54.186 2.048-11.625-50.335 27.668-70.352 56.587-33.097-2.012-17.976-17.259-31.952-35.772-31.952s-33.76 13.976-35.772 31.952c-23.627-13.899-54.229 2.971-54.229 31.049 0 19.882 16.118 36 36 36v98.999h108v-15h-93z" fill="#c8d1da" fill-rule="evenodd"/></g><g><path d="m105.811 497h232.878v15h-232.878z"/><path d="m75.812 497h-30v-422.001h-15v437.001h60v-248.5h-15z"/><path d="m383.688 0h-277.877v15h277.877c20.678 0 37.5 16.822 37.5 37.5v407c0 20.678-16.822 37.5-37.5 37.5h-29.999v15h29.999c28.948 0 52.5-23.552 52.5-52.5v-407c0-28.948-23.552-52.5-52.5-52.5z"/><path d="m30.812 60h15v-45h30v233.5h15v-248.5h-60z"/><path d="m466.188 452h-15.001v15h30.001v-90h-15z"/><path d="m451.187 257h15.001v90h-15.001v15h30.001v-120h-30.001z"/><path d="m451.187 107v15h15.001v90h-15.001v15h30.001v-120z"/><path d="m295 218.501h-22.5v15h22.5c23.986 0 43.5-19.514 43.5-43.5 0-12.646-5.173-24.171-14.565-32.456l-9.922 11.25c6.118 5.396 9.487 12.927 9.487 21.206 0 15.715-12.785 28.5-28.5 28.5z"/><path d="m282.012 148.446c-6.012-17.029-22.221-28.945-41.012-28.945-18.792 0-35.002 11.917-41.014 28.948-11.399-3.605-23.8-2.318-34.626 3.872-13.688 7.828-21.86 21.914-21.86 37.68 0 23.986 19.514 43.5 43.5 43.5h22.5v-15h-22.5c-15.715 0-28.5-12.785-28.5-28.5 0-10.317 5.348-19.535 14.307-24.659 9.045-5.175 19.744-5.146 28.617.074l9.97 5.866 1.287-11.496c1.613-14.415 13.788-25.285 28.319-25.285s26.706 10.87 28.319 25.285l1.286 11.496 9.97-5.866c7.079-4.164 15.287-5.057 23.115-2.508l4.641-14.264c-8.76-2.85-17.836-2.885-26.319-.198z"/><path d="m302.5 248.501h-15v68.999h-93v-68.999h-15v83.999h123z"/><path d="m179.5 347.5h15v15h-15z"/><path d="m209.5 347.5h93v15h-93z"/></g></g></svg>